<svg width="69" height="69" viewBox="0 0 69 69" fill="none" xmlns="http://www.w3.org/2000/svg">
<path d="M48.426 25.9879C48.1833 26.2064 47.8678 26.34 47.5401 26.34H16.4177C15.3131 26.34 14.7547 25.0776 15.5195 24.3372L20.6296 19.4091C20.8724 19.1784 21.188 19.0449 21.5157 19.0449H52.7593C53.8761 19.0449 54.4224 20.3194 53.6455 21.0598L48.426 25.9879Z" fill="url(#paint0_linear_4605_1258)"/>
<path d="M48.426 50.2766C48.1833 50.4949 47.8678 50.6164 47.5401 50.6164H16.4177C15.3131 50.6164 14.7547 49.366 15.5195 48.6256L20.6296 43.6854C20.8724 43.4548 21.188 43.3333 21.5157 43.3333H52.7593C53.8761 43.3333 54.4224 44.5956 53.6455 45.3363L48.426 50.2766Z" fill="url(#paint1_linear_4605_1258)"/>
<path d="M48.426 31.5351C48.1833 31.3167 47.8678 31.1952 47.5401 31.1952H16.4177C15.3131 31.1952 14.7547 32.4453 15.5195 33.186L20.6296 38.1263C20.8724 38.3446 21.188 38.478 21.5157 38.478H52.7593C53.8761 38.478 54.4224 37.2157 53.6455 36.4753L48.426 31.5351Z" fill="url(#paint2_linear_4605_1258)"/>
<defs>
<linearGradient id="paint0_linear_4605_1258" x1="15.1675" y1="44.155" x2="54.9407" y2="42.578" gradientUnits="userSpaceOnUse">
<stop stop-color="#599DB0"/>
<stop offset="1" stop-color="#47F8C3"/>
</linearGradient>
<linearGradient id="paint1_linear_4605_1258" x1="15.1675" y1="45.5648" x2="54.7059" y2="44.2546" gradientUnits="userSpaceOnUse">
<stop stop-color="#C44FE2"/>
<stop offset="1" stop-color="#73B0D0"/>
</linearGradient>
<linearGradient id="paint2_linear_4605_1258" x1="17.4009" y1="34.8369" x2="52.5044" y2="34.8369" gradientUnits="userSpaceOnUse">
<stop stop-color="#778CBF"/>
<stop offset="1" stop-color="#5DCDC9"/>
</linearGradient>
</defs>
</svg>
